{
	"patcher" : 	{
		"fileversion" : 1,
		"appversion" : 		{
			"major" : 5,
			"minor" : 1,
			"revision" : 9
		}
,
		"rect" : [ 58.0, 156.0, 957.0, 730.0 ],
		"bgcolor" : [ 0.337255, 0.337255, 0.321569, 1.0 ],
		"bglocked" : 0,
		"defrect" : [ 58.0, 156.0, 957.0, 730.0 ],
		"openrect" : [ 0.0, 0.0, 0.0, 0.0 ],
		"openinpresentation" : 0,
		"default_fontsize" : 12.0,
		"default_fontface" : 0,
		"default_fontname" : "Arial",
		"gridonopen" : 0,
		"gridsize" : [ 15.0, 15.0 ],
		"gridsnaponopen" : 0,
		"toolbarvisible" : 1,
		"boxanimatetime" : 200,
		"imprint" : 0,
		"enablehscroll" : 1,
		"enablevscroll" : 1,
		"devicewidth" : 0.0,
		"boxes" : [ 			{
				"box" : 				{
					"maxclass" : "newobj",
					"text" : "p source",
					"fontname" : "Arial",
					"patching_rect" : [ 26.0, 59.0, 57.0, 20.0 ],
					"id" : "obj-35",
					"numinlets" : 0,
					"fontsize" : 12.0,
					"numoutlets" : 0,
					"patcher" : 					{
						"fileversion" : 1,
						"appversion" : 						{
							"major" : 5,
							"minor" : 1,
							"revision" : 9
						}
,
						"rect" : [ 29.0, 69.0, 640.0, 480.0 ],
						"bglocked" : 0,
						"defrect" : [ 29.0, 69.0, 640.0, 480.0 ],
						"openrect" : [ 0.0, 0.0, 0.0, 0.0 ],
						"openinpresentation" : 0,
						"default_fontsize" : 12.0,
						"default_fontface" : 0,
						"default_fontname" : "Arial",
						"gridonopen" : 0,
						"gridsize" : [ 15.0, 15.0 ],
						"gridsnaponopen" : 0,
						"toolbarvisible" : 1,
						"boxanimatetime" : 200,
						"imprint" : 0,
						"enablehscroll" : 1,
						"enablevscroll" : 1,
						"devicewidth" : 0.0,
						"boxes" : [ 							{
								"box" : 								{
									"maxclass" : "comment",
									"text" : "The serial communication protocol is based on:\n\nVirtual color mixer\n\nThis patch takes a string, containing three comma-separated ASCII formatted numbers from 0 to 1023, with a carriage return and linefeed at the end.  It converts the string to three integers and uses them to set the background color.\n\n created 2 Dec 2006\n by David A. Mellis\nmodified 14 Apr 2009\nby Scott Fitzgerald and Tom Igoe",
									"linecount" : 13,
									"fontname" : "Arial",
									"patching_rect" : [ 13.0, 19.0, 398.0, 186.0 ],
									"id" : "obj-32",
									"numinlets" : 1,
									"fontsize" : 12.0,
									"numoutlets" : 0
								}

							}
 ],
						"lines" : [  ]
					}
,
					"saved_object_attributes" : 					{
						"fontname" : "Arial",
						"default_fontface" : 0,
						"default_fontname" : "Arial",
						"fontface" : 0,
						"fontsize" : 12.0,
						"globalpatchername" : "",
						"default_fontsize" : 12.0
					}

				}

			}
, 			{
				"box" : 				{
					"maxclass" : "comment",
					"text" : "http://tedor.info/stech2014",
					"fontname" : "Arial",
					"patching_rect" : [ 26.0, 35.0, 238.0, 20.0 ],
					"id" : "obj-31",
					"numinlets" : 1,
					"fontsize" : 12.0,
					"numoutlets" : 0
				}

			}
, 			{
				"box" : 				{
					"maxclass" : "comment",
					"text" : "simpleSerial",
					"fontname" : "Arial",
					"patching_rect" : [ 26.0, 12.0, 308.0, 27.0 ],
					"id" : "obj-25",
					"numinlets" : 1,
					"fontface" : 1,
					"fontsize" : 18.0,
					"numoutlets" : 0
				}

			}
, 			{
				"box" : 				{
					"maxclass" : "comment",
					"text" : "use http://www.asciitable.com/ to see how CHR represented.",
					"linecount" : 2,
					"fontname" : "Arial",
					"patching_rect" : [ 31.0, 624.0, 244.0, 34.0 ],
					"id" : "obj-28",
					"numinlets" : 1,
					"fontsize" : 12.0,
					"numoutlets" : 0
				}

			}
, 			{
				"box" : 				{
					"maxclass" : "comment",
					"text" : "4) Try to have 50 50 44 at the beginning. It will give you 22 as an output on the other side. ",
					"linecount" : 3,
					"fontname" : "Arial",
					"patching_rect" : [ 30.0, 573.0, 244.0, 48.0 ],
					"id" : "obj-24",
					"numinlets" : 1,
					"fontsize" : 12.0,
					"numoutlets" : 0
				}

			}
, 			{
				"box" : 				{
					"maxclass" : "comment",
					"text" : "I.",
					"fontname" : "Arial",
					"patching_rect" : [ 502.0, 174.0, 199.0, 20.0 ],
					"id" : "obj-23",
					"numinlets" : 1,
					"fontsize" : 12.0,
					"numoutlets" : 0
				}

			}
, 			{
				"box" : 				{
					"maxclass" : "comment",
					"text" : "II.",
					"fontname" : "Arial",
					"patching_rect" : [ 29.0, 261.0, 199.0, 20.0 ],
					"id" : "obj-6",
					"numinlets" : 1,
					"fontsize" : 12.0,
					"numoutlets" : 0
				}

			}
, 			{
				"box" : 				{
					"maxclass" : "comment",
					"text" : "1) Turn to pots down to minimum. 0 will be represented by 48. \n\n2) There is number which doesn't change: 44 - the comma (\",\"). Look at the arduino code, which has  two \";\"-s. \n\n3) Turn the pots up. You will see that you have more numbers in between the 44s the \",\". ",
					"linecount" : 10,
					"fontname" : "Arial",
					"patching_rect" : [ 33.0, 386.0, 243.0, 144.0 ],
					"id" : "obj-38",
					"numinlets" : 1,
					"fontsize" : 12.0,
					"numoutlets" : 0
				}

			}
, 			{
				"box" : 				{
					"maxclass" : "comment",
					"text" : "You have to organise this somehow:",
					"fontname" : "Arial",
					"patching_rect" : [ 31.0, 331.0, 215.0, 20.0 ],
					"id" : "obj-36",
					"numinlets" : 1,
					"fontsize" : 12.0,
					"numoutlets" : 0
				}

			}
, 			{
				"box" : 				{
					"maxclass" : "comment",
					"text" : "Explain parsing:",
					"fontname" : "Arial",
					"patching_rect" : [ 29.0, 300.0, 199.0, 20.0 ],
					"id" : "obj-34",
					"numinlets" : 1,
					"fontsize" : 12.0,
					"numoutlets" : 0
				}

			}
, 			{
				"box" : 				{
					"maxclass" : "message",
					"text" : "50",
					"fontname" : "Arial",
					"patching_rect" : [ 189.0, 354.0, 71.0, 18.0 ],
					"id" : "obj-33",
					"numinlets" : 2,
					"fontsize" : 12.0,
					"numoutlets" : 1,
					"outlettype" : [ "" ]
				}

			}
, 			{
				"box" : 				{
					"maxclass" : "message",
					"text" : "50 50 44 50 50 44 50 55",
					"fontname" : "Arial",
					"patching_rect" : [ 115.0, 527.0, 166.0, 18.0 ],
					"id" : "obj-32",
					"numinlets" : 2,
					"fontsize" : 12.0,
					"numoutlets" : 1,
					"outlettype" : [ "" ]
				}

			}
, 			{
				"box" : 				{
					"maxclass" : "newobj",
					"text" : "select 0 1",
					"fontname" : "Arial",
					"patching_rect" : [ 417.0, 112.0, 62.0, 20.0 ],
					"id" : "obj-30",
					"numinlets" : 1,
					"fontsize" : 12.0,
					"numoutlets" : 3,
					"outlettype" : [ "bang", "bang", "" ]
				}

			}
, 			{
				"box" : 				{
					"maxclass" : "comment",
					"text" : "- click here to close the serial port",
					"fontname" : "Arial",
					"patching_rect" : [ 464.0, 263.0, 247.0, 20.0 ],
					"id" : "obj-26",
					"numinlets" : 1,
					"fontsize" : 12.0,
					"numoutlets" : 0
				}

			}
, 			{
				"box" : 				{
					"maxclass" : "comment",
					"text" : "2) Change the letter 'c' to your Arduino port, click on it",
					"fontname" : "Arial",
					"patching_rect" : [ 502.0, 237.0, 328.0, 20.0 ],
					"id" : "obj-27",
					"numinlets" : 1,
					"fontsize" : 12.0,
					"numoutlets" : 0
				}

			}
, 			{
				"box" : 				{
					"maxclass" : "message",
					"text" : "close",
					"fontname" : "Arial",
					"patching_rect" : [ 417.0, 263.0, 39.0, 18.0 ],
					"id" : "obj-21",
					"numinlets" : 2,
					"fontsize" : 12.0,
					"numoutlets" : 1,
					"outlettype" : [ "" ]
				}

			}
, 			{
				"box" : 				{
					"maxclass" : "message",
					"text" : "port c",
					"fontname" : "Arial",
					"patching_rect" : [ 439.0, 237.0, 41.0, 18.0 ],
					"id" : "obj-19",
					"numinlets" : 2,
					"fontsize" : 12.0,
					"numoutlets" : 1,
					"outlettype" : [ "" ]
				}

			}
, 			{
				"box" : 				{
					"maxclass" : "comment",
					"text" : "1) Click here to get a list of serial ports (in max/post window)",
					"fontname" : "Arial",
					"patching_rect" : [ 502.0, 207.0, 334.0, 20.0 ],
					"id" : "obj-2",
					"numinlets" : 1,
					"fontsize" : 12.0,
					"numoutlets" : 0
				}

			}
, 			{
				"box" : 				{
					"maxclass" : "comment",
					"text" : "Convert ASCII to numbers",
					"fontname" : "Arial",
					"patching_rect" : [ 462.0, 466.0, 161.0, 20.0 ],
					"id" : "obj-4",
					"numinlets" : 1,
					"fontsize" : 12.0,
					"numoutlets" : 0
				}

			}
, 			{
				"box" : 				{
					"maxclass" : "comment",
					"text" : "Convert integer to ASCII",
					"fontname" : "Arial",
					"patching_rect" : [ 462.0, 443.0, 147.0, 20.0 ],
					"id" : "obj-5",
					"numinlets" : 1,
					"fontsize" : 12.0,
					"numoutlets" : 0
				}

			}
, 			{
				"box" : 				{
					"maxclass" : "newobj",
					"text" : "fromsymbol",
					"fontname" : "Arial",
					"patching_rect" : [ 385.0, 466.0, 74.0, 20.0 ],
					"id" : "obj-7",
					"numinlets" : 1,
					"color" : [ 1.0, 0.890196, 0.090196, 1.0 ],
					"fontsize" : 12.0,
					"numoutlets" : 1,
					"outlettype" : [ "" ]
				}

			}
, 			{
				"box" : 				{
					"maxclass" : "newobj",
					"text" : "itoa",
					"fontname" : "Arial",
					"patching_rect" : [ 385.0, 443.0, 46.0, 20.0 ],
					"id" : "obj-8",
					"numinlets" : 3,
					"color" : [ 1.0, 0.890196, 0.090196, 1.0 ],
					"fontsize" : 12.0,
					"numoutlets" : 1,
					"outlettype" : [ "int" ]
				}

			}
, 			{
				"box" : 				{
					"maxclass" : "newobj",
					"text" : "zl group",
					"fontname" : "Arial",
					"patching_rect" : [ 334.0, 359.0, 53.0, 20.0 ],
					"id" : "obj-9",
					"numinlets" : 2,
					"fontsize" : 12.0,
					"numoutlets" : 2,
					"outlettype" : [ "", "" ]
				}

			}
, 			{
				"box" : 				{
					"maxclass" : "newobj",
					"text" : "select 10 13",
					"fontname" : "Arial",
					"patching_rect" : [ 334.0, 317.0, 77.0, 20.0 ],
					"id" : "obj-10",
					"numinlets" : 1,
					"fontsize" : 12.0,
					"numoutlets" : 3,
					"outlettype" : [ "bang", "bang", "" ]
				}

			}
, 			{
				"box" : 				{
					"maxclass" : "toggle",
					"patching_rect" : [ 334.0, 75.0, 15.0, 15.0 ],
					"id" : "obj-11",
					"numinlets" : 1,
					"numoutlets" : 1,
					"outlettype" : [ "int" ]
				}

			}
, 			{
				"box" : 				{
					"maxclass" : "newobj",
					"text" : "qmetro 10",
					"fontname" : "Arial",
					"patching_rect" : [ 334.0, 112.0, 65.0, 20.0 ],
					"id" : "obj-12",
					"numinlets" : 2,
					"fontsize" : 12.0,
					"numoutlets" : 1,
					"outlettype" : [ "bang" ]
				}

			}
, 			{
				"box" : 				{
					"maxclass" : "message",
					"text" : "print",
					"fontname" : "Arial",
					"patching_rect" : [ 459.0, 211.0, 36.0, 18.0 ],
					"id" : "obj-13",
					"numinlets" : 2,
					"fontsize" : 12.0,
					"numoutlets" : 1,
					"outlettype" : [ "" ]
				}

			}
, 			{
				"box" : 				{
					"maxclass" : "newobj",
					"text" : "serial c 9600",
					"fontname" : "Arial",
					"patching_rect" : [ 334.0, 287.0, 84.0, 20.0 ],
					"id" : "obj-14",
					"numinlets" : 1,
					"fontsize" : 12.0,
					"numoutlets" : 2,
					"outlettype" : [ "int", "" ]
				}

			}
, 			{
				"box" : 				{
					"maxclass" : "comment",
					"text" : "Read serial input buffer every 10 milliseconds",
					"linecount" : 2,
					"fontname" : "Arial",
					"patching_rect" : [ 145.0, 109.0, 185.0, 34.0 ],
					"id" : "obj-15",
					"numinlets" : 1,
					"fontsize" : 12.0,
					"numoutlets" : 0
				}

			}
, 			{
				"box" : 				{
					"maxclass" : "comment",
					"text" : "If you get newline (ASCII 10), send the list. If you get return (ASCII 13) do nothing. Any other value, add to the list",
					"linecount" : 2,
					"fontname" : "Arial",
					"patching_rect" : [ 421.0, 316.0, 326.0, 34.0 ],
					"id" : "obj-16",
					"numinlets" : 1,
					"fontsize" : 12.0,
					"numoutlets" : 0
				}

			}
, 			{
				"box" : 				{
					"maxclass" : "comment",
					"text" : "3) Click to open/close serial port and start/stop patch",
					"fontname" : "Arial",
					"patching_rect" : [ 358.0, 74.0, 313.0, 20.0 ],
					"id" : "obj-17",
					"numinlets" : 1,
					"fontsize" : 12.0,
					"numoutlets" : 0
				}

			}
, 			{
				"box" : 				{
					"maxclass" : "newobj",
					"text" : "unpack 0 0 0 0 0",
					"fontname" : "Verdana",
					"patching_rect" : [ 385.0, 513.0, 119.0, 19.0 ],
					"id" : "obj-20",
					"numinlets" : 1,
					"fontsize" : 10.0,
					"numoutlets" : 5,
					"outlettype" : [ "int", "int", "int", "int", "int" ]
				}

			}
, 			{
				"box" : 				{
					"maxclass" : "number",
					"fontname" : "Verdana",
					"patching_rect" : [ 486.0, 578.0, 50.0, 19.0 ],
					"id" : "obj-18",
					"numinlets" : 1,
					"fontsize" : 10.0,
					"numoutlets" : 2,
					"outlettype" : [ "int", "bang" ]
				}

			}
, 			{
				"box" : 				{
					"maxclass" : "number",
					"fontname" : "Verdana",
					"patching_rect" : [ 436.0, 578.0, 50.0, 19.0 ],
					"id" : "obj-1",
					"numinlets" : 1,
					"fontsize" : 10.0,
					"numoutlets" : 2,
					"outlettype" : [ "int", "bang" ]
				}

			}
, 			{
				"box" : 				{
					"maxclass" : "number",
					"fontname" : "Verdana",
					"patching_rect" : [ 386.0, 578.0, 50.0, 19.0 ],
					"id" : "obj-22",
					"numinlets" : 1,
					"fontsize" : 10.0,
					"numoutlets" : 2,
					"outlettype" : [ "int", "bang" ]
				}

			}
, 			{
				"box" : 				{
					"maxclass" : "comment",
					"text" : "Here's the numbers from Arduino's analog input",
					"linecount" : 2,
					"fontname" : "Arial",
					"patching_rect" : [ 549.0, 565.0, 167.0, 34.0 ],
					"id" : "obj-3",
					"numinlets" : 1,
					"fontsize" : 12.0,
					"numoutlets" : 0
				}

			}
 ],
		"lines" : [ 			{
				"patchline" : 				{
					"source" : [ "obj-20", 4 ],
					"destination" : [ "obj-18", 0 ],
					"hidden" : 0,
					"midpoints" : [  ]
				}

			}
, 			{
				"patchline" : 				{
					"source" : [ "obj-20", 2 ],
					"destination" : [ "obj-1", 0 ],
					"hidden" : 0,
					"midpoints" : [  ]
				}

			}
, 			{
				"patchline" : 				{
					"source" : [ "obj-20", 0 ],
					"destination" : [ "obj-22", 0 ],
					"hidden" : 0,
					"midpoints" : [  ]
				}

			}
, 			{
				"patchline" : 				{
					"source" : [ "obj-10", 2 ],
					"destination" : [ "obj-9", 0 ],
					"hidden" : 0,
					"midpoints" : [ 401.5, 352.0, 343.5, 352.0 ]
				}

			}
, 			{
				"patchline" : 				{
					"source" : [ "obj-10", 0 ],
					"destination" : [ "obj-9", 0 ],
					"hidden" : 0,
					"midpoints" : [ 343.5, 340.0, 343.5, 340.0 ]
				}

			}
, 			{
				"patchline" : 				{
					"source" : [ "obj-9", 0 ],
					"destination" : [ "obj-8", 0 ],
					"hidden" : 0,
					"midpoints" : [  ]
				}

			}
, 			{
				"patchline" : 				{
					"source" : [ "obj-7", 0 ],
					"destination" : [ "obj-20", 0 ],
					"hidden" : 0,
					"midpoints" : [  ]
				}

			}
, 			{
				"patchline" : 				{
					"source" : [ "obj-11", 0 ],
					"destination" : [ "obj-30", 0 ],
					"hidden" : 0,
					"midpoints" : [ 343.0, 103.0, 426.5, 103.0 ]
				}

			}
, 			{
				"patchline" : 				{
					"source" : [ "obj-30", 1 ],
					"destination" : [ "obj-19", 0 ],
					"hidden" : 0,
					"midpoints" : [  ]
				}

			}
, 			{
				"patchline" : 				{
					"source" : [ "obj-30", 0 ],
					"destination" : [ "obj-21", 0 ],
					"hidden" : 0,
					"midpoints" : [  ]
				}

			}
, 			{
				"patchline" : 				{
					"source" : [ "obj-11", 0 ],
					"destination" : [ "obj-12", 0 ],
					"hidden" : 0,
					"midpoints" : [  ]
				}

			}
, 			{
				"patchline" : 				{
					"source" : [ "obj-8", 0 ],
					"destination" : [ "obj-7", 0 ],
					"hidden" : 0,
					"midpoints" : [  ]
				}

			}
, 			{
				"patchline" : 				{
					"source" : [ "obj-9", 0 ],
					"destination" : [ "obj-32", 1 ],
					"hidden" : 0,
					"midpoints" : [ 343.5, 386.0, 271.5, 386.0 ]
				}

			}
, 			{
				"patchline" : 				{
					"source" : [ "obj-14", 0 ],
					"destination" : [ "obj-33", 1 ],
					"hidden" : 0,
					"midpoints" : [ 343.5, 316.5, 250.5, 316.5 ]
				}

			}
, 			{
				"patchline" : 				{
					"source" : [ "obj-14", 0 ],
					"destination" : [ "obj-10", 0 ],
					"hidden" : 0,
					"midpoints" : [  ]
				}

			}
, 			{
				"patchline" : 				{
					"source" : [ "obj-12", 0 ],
					"destination" : [ "obj-14", 0 ],
					"hidden" : 0,
					"midpoints" : [  ]
				}

			}
, 			{
				"patchline" : 				{
					"source" : [ "obj-13", 0 ],
					"destination" : [ "obj-14", 0 ],
					"hidden" : 0,
					"midpoints" : [ 468.5, 232.5, 343.5, 232.5 ]
				}

			}
, 			{
				"patchline" : 				{
					"source" : [ "obj-19", 0 ],
					"destination" : [ "obj-14", 0 ],
					"hidden" : 0,
					"midpoints" : [ 448.5, 260.5, 343.5, 260.5 ]
				}

			}
, 			{
				"patchline" : 				{
					"source" : [ "obj-21", 0 ],
					"destination" : [ "obj-14", 0 ],
					"hidden" : 0,
					"midpoints" : [ 426.5, 283.5, 343.5, 283.5 ]
				}

			}
 ]
	}

}
